<?xml version="1.0" encoding="UTF-8" standalone="no"?>
<!-- Created with Inkscape (http://www.inkscape.org/) -->

<svg
   xmlns:dc="http://purl.org/dc/elements/1.1/"
   xmlns:cc="http://creativecommons.org/ns#"
   xmlns:rdf="http://www.w3.org/1999/02/22-rdf-syntax-ns#"
   xmlns:svg="http://www.w3.org/2000/svg"
   xmlns="http://www.w3.org/2000/svg"
   xmlns:sodipodi="http://sodipodi.sourceforge.net/DTD/sodipodi-0.dtd"
   xmlns:inkscape="http://www.inkscape.org/namespaces/inkscape"
   width="157.95996mm"
   height="32.02483mm"
   viewBox="0 0 157.95996 32.02483"
   version="1.1"
   id="svg8"
   sodipodi:docname="parglare-logo.svg"
   inkscape:version="0.92.1 r"
   inkscape:export-filename="/home/igor/repos/parglare/docs/images/parglare-logo.png"
   inkscape:export-xdpi="89.988602"
   inkscape:export-ydpi="89.988602">
  <defs
     id="defs2" />
  <sodipodi:namedview
     id="base"
     pagecolor="#ffffff"
     bordercolor="#666666"
     borderopacity="1.0"
     inkscape:pageopacity="0.0"
     inkscape:pageshadow="2"
     inkscape:zoom="1.979899"
     inkscape:cx="184.50255"
     inkscape:cy="19.93636"
     inkscape:document-units="mm"
     inkscape:current-layer="layer1"
     showgrid="false"
     inkscape:window-width="1886"
     inkscape:window-height="1163"
     inkscape:window-x="34"
     inkscape:window-y="0"
     inkscape:window-maximized="1"
     fit-margin-top="0"
     fit-margin-left="0"
     fit-margin-right="0"
     fit-margin-bottom="0" />
  <metadata
     id="metadata5">
    <rdf:RDF>
      <cc:Work
         rdf:about="">
        <dc:format>image/svg+xml</dc:format>
        <dc:type
           rdf:resource="http://purl.org/dc/dcmitype/StillImage" />
        <dc:title />
      </cc:Work>
    </rdf:RDF>
  </metadata>
  <g
     inkscape:label="Layer 1"
     inkscape:groupmode="layer"
     id="layer1"
     transform="translate(-10.938693,-71.809433)">
    <path
       style="color:#000000;display:inline;overflow:visible;visibility:visible;fill:none;fill-rule:evenodd;stroke:#000000;stroke-width:0.37816155px;stroke-linecap:butt;stroke-linejoin:miter;stroke-miterlimit:4;stroke-dasharray:none;stroke-dashoffset:0;stroke-opacity:1;marker:none;enable-background:accumulate"
       d="m 22.717957,95.703286 -6.975156,-0.0324 V 92.19369 h 8.845996 m 6.11379,0 H 168.70958 v 3.477196 l -137.472431,0.04528 m -3.507912,0.0011 -2.546573,8.38e-4"
       id="rect4616"
       inkscape:connector-curvature="0"
       sodipodi:nodetypes="cccccccccc" />
    <g
       id="g4614">
      <g
         transform="matrix(0.29540089,0,0,0.29540089,1.1197777,55.73297)"
         id="g4596">
        <path
           style="opacity:1;vector-effect:none;fill:none;fill-opacity:1;fill-rule:evenodd;stroke:#000000;stroke-width:1.11099994;stroke-linecap:round;stroke-linejoin:bevel;stroke-miterlimit:4;stroke-dasharray:none;stroke-dashoffset:0;stroke-opacity:1;marker:none"
           d="M 96.684751,87.126603 96.083392,72.760867 c -1.268922,1.52116 -2.673254,2.80535 -5.34539,1.870885 1.198577,4.982261 2.188882,10.77293 3.073602,15.702086 l -2.672695,-4.744034 c -0.987379,-1.136979 -7.483116,-7.31125 -15.501633,-5.746295 -8.018517,1.564955 -12.329327,6.917302 -18.842501,9.621703 -3.850884,1.598965 -11.893494,3.875408 -11.893494,3.875408 -3.742616,0.988615 -7.667209,2.664473 -9.888973,6.414469 -1.909956,5.196241 -1.46865,10.026601 0.534539,16.036171 0.2724,0.8172 6.072804,-3.15179 7.884451,-7.21627 1.284514,-2.88185 2.512917,-5.98967 4.810851,-8.15173 5.063743,-4.764328 7.548334,-1.821522 18.575233,-9.488066 3.184652,-2.214156 10.056796,-4.193753 15.501632,-3.207233 4.108935,0.744476 6.832253,5.718619 7.349912,9.888974 0.872782,7.031285 -5.784404,35.687655 5.34539,47.841235 6.099924,6.66103 19.450084,8.11556 26.326054,6.41447 5.70116,-1.00398 16.94392,-6.97166 21.20657,-16.56004 m 1.50898,-12.05748 c -0.72553,-3.75957 -2.27848,-7.34135 -4.27396,-10.13656 -2.5064,-3.4459 -9.30688,-9.16728 -17.91394,-10.23433 -6.86192,-0.8507 -15.48024,0.33614 -20.97377,3.41897 m -12.027134,6.54808 c -6.834834,4.84126 -9.829279,11.30963 -13.776849,18.69674 -5.126616,9.59347 -10.143773,31.01541 -10.143773,31.01541 0,0 10.796611,-19.36368 13.82645,-23.93684 2.770376,-4.18154 6.275577,-8.52342 9.354434,-11.89348 m 11.586482,-7.82755 c 5.71191,-3.13342 14.17058,-6.95869 20.47093,-5.8474 4.62859,0.81641 9.54044,5.3942 11.1621,10.48066 m -2.55779,11.72355 c -2.82584,2.50933 -6.46895,4.34931 -8.90365,5.14733 -4.39003,1.15761 -13.51365,-0.29497 -16.58578,-3.63778 -3.440426,-3.74356 -3.27907,-8.95794 -3.608137,-14.03165 -0.358233,-5.52345 -0.05077,-11.15012 1.069077,-16.57071 m 0,0 c 1.33978,-6.485133 1.82907,-14.20292 6.68174,-18.708869 5.28215,-4.904744 13.65288,-6.195563 20.84702,-5.746296 6.25837,0.390829 12.44916,3.33293 17.37252,7.216277 2.85424,2.251311 4.20368,5.93415 6.41447,8.819895 2.1577,2.816453 6.68174,8.285353 6.68174,8.285353 0,0 3.56067,-5.98703 3.4745,-8.552621 -0.0685,-2.040365 -0.55497,-4.208529 -2.93996,-6.280835 -4.00828,-3.482776 -4.41001,-1.954608 -9.1073,-6.043208 -4.24648,-3.696201 -14.94219,-9.356683 -22.29688,-9.725695 -4.45384,-0.223466 -12.01096,0.719504 -16.9716,3.207235 -6.52359,3.271539 -11.435904,11.146353 -11.225326,11.22532 0,0 1.452886,-8.207331 3.474506,-11.759859 2.46319,-4.328491 5.88355,-8.399301 10.15624,-10.958051 5.1352,-3.075273 11.38785,-4.650265 17.37252,-4.543582 2.78993,0.04973 5.32501,1.675002 8.01809,2.405426 3.09689,0.839947 9.35443,2.271791 9.35443,2.271791 0.23052,0.115262 0.38154,-5.323489 -2.13816,-8.285356 -1.93062,-2.26942 -6.54923,-3.891637 -10.02261,-4.009042 -3.38875,-0.114546 -6.7509,0.846903 -10.0226,1.737251 -5.00549,1.362174 -10.06256,2.904595 -14.56619,5.479026 -2.95642,1.689989 -5.76936,3.79995 -7.95127,6.414469 -2.71405,3.252157 -4.901243,7.090062 -6.080382,11.158502 -0.950623,3.279977 -0.668174,10.22306 -0.668174,10.22306"
           id="path4485"
           inkscape:connector-curvature="0"
           sodipodi:nodetypes="ccccczascssassssccccsccscsccscccssccaaaacssssscaaaacssaaaac" />
        <path
           style="color:#000000;clip-rule:nonzero;display:inline;overflow:visible;visibility:visible;opacity:1;isolation:auto;mix-blend-mode:normal;color-interpolation:sRGB;color-interpolation-filters:linearRGB;solid-color:#000000;solid-opacity:1;fill:none;fill-opacity:1;fill-rule:evenodd;stroke:#000000;stroke-width:1.11099994;stroke-linecap:butt;stroke-linejoin:miter;stroke-miterlimit:4;stroke-dasharray:none;stroke-dashoffset:0;stroke-opacity:1;marker:none;color-rendering:auto;image-rendering:auto;shape-rendering:auto;text-rendering:auto;enable-background:accumulate"
           d="m 91.940718,79.843509 c 0,0 -9.819705,-12.612135 -16.704347,-16.169807 -4.307692,-2.226021 -9.451628,-2.795749 -14.29892,-2.672695 -4.57951,0.116256 -9.387792,0.931413 -13.363476,3.207234 -2.89814,1.658997 -5.700238,4.119173 -6.949006,7.216278 -3.099769,4.250523 2.439646,13.71642 3.207234,13.497109 0.420439,0.504527 4.223627,-5.144972 4.009041,-8.819893 1.318845,-4.507795 5.055042,-8.654268 9.755339,-9.354434 1.767361,-0.288068 4.556316,-0.52346 6.815373,-0.267269 3.210387,0.364078 6.459848,1.10361 9.354432,2.53906 2.618113,1.298345 4.789078,3.376912 6.949009,5.345391 3.773997,3.439476 10.423512,11.225321 10.423512,11.225321"
           id="path4489"
           inkscape:connector-curvature="0"
           sodipodi:nodetypes="caaaccccaaac" />
        <path
           style="color:#000000;clip-rule:nonzero;display:inline;overflow:visible;visibility:visible;opacity:1;isolation:auto;mix-blend-mode:normal;color-interpolation:sRGB;color-interpolation-filters:linearRGB;solid-color:#000000;solid-opacity:1;fill:#000000;fill-opacity:1;fill-rule:evenodd;stroke:#000000;stroke-width:0.26458332px;stroke-linecap:butt;stroke-linejoin:miter;stroke-miterlimit:4;stroke-dasharray:none;stroke-dashoffset:0;stroke-opacity:1;marker:none;color-rendering:auto;image-rendering:auto;shape-rendering:auto;text-rendering:auto;enable-background:accumulate"
           d="m 38.620446,104.69957 c 0,0 -2.500943,0.90266 -2.939965,2.00452 -0.388077,0.974 0.668174,3.0736 0.668174,3.0736 1.374869,-1.20874 1.607793,-3.15851 2.271791,-5.07812 z"
           id="path4514"
           inkscape:connector-curvature="0"
           sodipodi:nodetypes="cacc" />
        <path
           style="color:#000000;clip-rule:nonzero;display:inline;overflow:visible;visibility:visible;opacity:1;isolation:auto;mix-blend-mode:normal;color-interpolation:sRGB;color-interpolation-filters:linearRGB;solid-color:#000000;solid-opacity:1;fill:#000000;fill-opacity:1;fill-rule:evenodd;stroke:#000000;stroke-width:0.26458332px;stroke-linecap:butt;stroke-linejoin:miter;stroke-miterlimit:4;stroke-dasharray:none;stroke-dashoffset:0;stroke-opacity:1;marker:none;color-rendering:auto;image-rendering:auto;shape-rendering:auto;text-rendering:auto;enable-background:accumulate"
           d="m 144.70702,61.98988 c 0,0 -0.82643,-2.527154 -1.91447,-2.999373 -0.96179,-0.417431 -3.09244,0.574677 -3.09244,0.574677 1.1665,1.410884 3.10831,1.702803 5.00691,2.424696 z"
           id="path4514-6"
           inkscape:connector-curvature="0"
           sodipodi:nodetypes="cacc" />
        <path
           style="color:#000000;clip-rule:nonzero;display:inline;overflow:visible;visibility:visible;opacity:1;isolation:auto;mix-blend-mode:normal;color-interpolation:sRGB;color-interpolation-filters:linearRGB;solid-color:#000000;solid-opacity:1;fill:none;fill-opacity:1;fill-rule:evenodd;stroke:#000000;stroke-width:1.11099994;stroke-linecap:round;stroke-linejoin:bevel;stroke-miterlimit:4;stroke-dasharray:none;stroke-dashoffset:0;stroke-opacity:1;marker:none;paint-order:fill markers stroke;color-rendering:auto;image-rendering:auto;shape-rendering:auto;text-rendering:auto;enable-background:accumulate"
           d="m 90.738002,74.631752 c -0.385938,-1.09919 2.049929,-4.033428 5.34539,-1.870885"
           id="path4531"
           inkscape:connector-curvature="0"
           sodipodi:nodetypes="cc" />
        <path
           style="color:#000000;clip-rule:nonzero;display:inline;overflow:visible;visibility:visible;opacity:1;isolation:auto;mix-blend-mode:normal;color-interpolation:sRGB;color-interpolation-filters:linearRGB;solid-color:#000000;solid-opacity:1;fill:#000000;fill-opacity:1;fill-rule:evenodd;stroke:#000000;stroke-width:0.26458332px;stroke-linecap:butt;stroke-linejoin:miter;stroke-miterlimit:4;stroke-dasharray:none;stroke-dashoffset:0;stroke-opacity:1;marker:none;color-rendering:auto;image-rendering:auto;shape-rendering:auto;text-rendering:auto;enable-background:accumulate"
           d="m 43.376308,73.100022 c 0,0 -2.097183,1.634422 -2.172472,2.818132 -0.06655,1.046351 1.589287,2.71434 1.589287,2.71434 0.931725,-1.575819 0.547885,-3.501572 0.583185,-5.532472 z"
           id="path4514-7"
           inkscape:connector-curvature="0"
           sodipodi:nodetypes="cacc" />
        <path
           style="color:#000000;clip-rule:nonzero;display:inline;overflow:visible;visibility:visible;opacity:1;isolation:auto;mix-blend-mode:normal;color-interpolation:sRGB;color-interpolation-filters:linearRGB;solid-color:#000000;solid-opacity:1;fill:#000000;fill-opacity:1;fill-rule:evenodd;stroke:#000000;stroke-width:0.26458332px;stroke-linecap:butt;stroke-linejoin:miter;stroke-miterlimit:4;stroke-dasharray:none;stroke-dashoffset:0;stroke-opacity:1;marker:none;color-rendering:auto;image-rendering:auto;shape-rendering:auto;text-rendering:auto;enable-background:accumulate"
           d="m 159.18206,99.362332 c 0,0 1.07332,-2.432594 0.57915,-3.510851 -0.43681,-0.953137 -2.68505,-1.638274 -2.68505,-1.638274 -0.0745,1.82914 1.17539,3.343593 2.1059,5.149125 z"
           id="path4514-72"
           inkscape:connector-curvature="0"
           sodipodi:nodetypes="cacc" />
      </g>
    </g>
    <text
       xml:space="preserve"
       style="color:#000000;font-style:normal;font-variant:normal;font-weight:normal;font-stretch:normal;font-size:23.22702026px;line-height:21.77532959px;font-family:'Abhaya Libre';-inkscape-font-specification:'Abhaya Libre';font-variant-ligatures:normal;font-variant-caps:normal;font-variant-numeric:normal;font-feature-settings:normal;text-indent:0;text-align:center;text-decoration:none;text-decoration-line:none;text-decoration-style:solid;text-decoration-color:#000000;letter-spacing:0px;word-spacing:0px;text-transform:none;writing-mode:lr-tb;direction:ltr;baseline-shift:baseline;text-anchor:middle;white-space:normal;clip-rule:nonzero;display:inline;overflow:visible;visibility:visible;opacity:1;isolation:auto;mix-blend-mode:normal;color-interpolation:sRGB;color-interpolation-filters:linearRGB;solid-color:#000000;solid-opacity:1;fill:#000000;fill-opacity:1;fill-rule:nonzero;stroke:none;stroke-width:0.8710131px;stroke-linecap:butt;stroke-linejoin:miter;stroke-miterlimit:4;stroke-dasharray:none;stroke-dashoffset:0;stroke-opacity:1;color-rendering:auto;image-rendering:auto;shape-rendering:auto;text-rendering:auto;enable-background:accumulate"
       x="102.58698"
       y="91.12162"
       id="text4600"><tspan
         sodipodi:role="line"
         id="tspan4598"
         x="102.58698"
         y="91.12162"
         style="font-style:normal;font-variant:normal;font-weight:normal;font-stretch:normal;font-family:Aldrich;-inkscape-font-specification:Aldrich;stroke-width:0.8710131px">parglare</tspan></text>
  </g>
</svg>
