<?xml version="1.0" encoding="UTF-8" standalone="no"?>
<svg
   xmlns:dc="http://purl.org/dc/elements/1.1/"
   xmlns:cc="http://creativecommons.org/ns#"
   xmlns:rdf="http://www.w3.org/1999/02/22-rdf-syntax-ns#"
   xmlns:svg="http://www.w3.org/2000/svg"
   xmlns="http://www.w3.org/2000/svg"
   xmlns:sodipodi="http://sodipodi.sourceforge.net/DTD/sodipodi-0.dtd"
   xmlns:inkscape="http://www.inkscape.org/namespaces/inkscape"
   id="svg2"
   sodipodi:docname="parglare.svg"
   inkscape:export-filename="/home/yves/Bureau/openclipart/serpent_yves_guillou_01.png"
   viewBox="0 0 917.36328 258.53076"
   sodipodi:version="0.32"
   inkscape:export-xdpi="205.08598"
   version="1.0"
   inkscape:output_extension="org.inkscape.output.svg.inkscape"
   inkscape:export-ydpi="205.08598"
   inkscape:version="0.92.3 (2405546, 2018-03-11)"
   width="917.36328"
   height="258.53076">
  <defs
     id="defs7" />
  <sodipodi:namedview
     id="base"
     bordercolor="#666666"
     inkscape:pageshadow="2"
     inkscape:window-width="1920"
     pagecolor="#ffffff"
     inkscape:zoom="0.42146152"
     inkscape:window-x="0"
     showgrid="false"
     borderopacity="1.0"
     inkscape:current-layer="svg2"
     inkscape:cx="887.68122"
     inkscape:cy="-210.28329"
     inkscape:window-y="0"
     inkscape:window-height="1003"
     inkscape:pageopacity="0.0"
     inkscape:window-maximized="1"
     showguides="false"
     fit-margin-top="0"
     fit-margin-left="0"
     fit-margin-right="0"
     fit-margin-bottom="0" />
  <metadata
     id="metadata4">
    <rdf:RDF>
      <cc:Work>
        <dc:format>image/svg+xml</dc:format>
        <dc:type
           rdf:resource="http://purl.org/dc/dcmitype/StillImage" />
        <cc:license
           rdf:resource="http://creativecommons.org/publicdomain/zero/1.0/" />
        <dc:publisher>
          <cc:Agent
             rdf:about="http://openclipart.org/">
            <dc:title>Openclipart</dc:title>
          </cc:Agent>
        </dc:publisher>
        <dc:title></dc:title>
        <dc:date>2008-01-03T19:54:02</dc:date>
        <dc:description>chinese zodiacal sign</dc:description>
        <dc:source>https://openclipart.org/detail/10557/serpent-by-yves_guillou-10557</dc:source>
        <dc:creator>
          <cc:Agent>
            <dc:title>yves_guillou</dc:title>
          </cc:Agent>
        </dc:creator>
        <dc:subject>
          <rdf:Bag>
            <rdf:li>animal</rdf:li>
            <rdf:li>serpent</rdf:li>
            <rdf:li>sign</rdf:li>
            <rdf:li>silhouette</rdf:li>
            <rdf:li>snake</rdf:li>
          </rdf:Bag>
        </dc:subject>
      </cc:Work>
      <cc:License
         rdf:about="http://creativecommons.org/publicdomain/zero/1.0/">
        <cc:permits
           rdf:resource="http://creativecommons.org/ns#Reproduction" />
        <cc:permits
           rdf:resource="http://creativecommons.org/ns#Distribution" />
        <cc:permits
           rdf:resource="http://creativecommons.org/ns#DerivativeWorks" />
      </cc:License>
    </rdf:RDF>
  </metadata>
  <rect
     style="fill:#ff0000;stroke:#000000;stroke-width:0.09295119"
     id="rect49"
     width="137.28355"
     height="42.261169"
     x="35.473461"
     y="143.56714" />
  <path
     style="fill:#000000;stroke:#000000;stroke-width:0.17229468"
     d="m 165.00734,12.244555 c -6.74139,-0.0228 -13.39323,1.95721 -18.75388,6.52325 -9.37787,7.36173 -14.61304,18.59133 -18.94367,29.36903 -0.23241,1.3432 -0.0852,3.1031 1.45204,3.8381 1.82188,-1.6971 1.38469,-1.6192 1.71524,-1.4159 0.70835,0.3926 1.08524,1.6638 -1.70789,3.3975 -0.42919,0.5776 -0.0906,4.0222 0.0971,5.593 0.0945,5.4638 1.29431,6.5816 2.41043,8.4729 1.77809,0.8091 4.96181,0.8555 7.19351,-3.979 5.92801,-9.618 7.87462,-15.6121 7.27427,-26.8049 9.75123,-8.8432 16.74532,-15.2943 26.75741,-12.7445 8.81126,3.3984 11.28929,13.8245 13.1477,22.164 2.93938,12.9191 -2.03642,26.51871 -11.38469,35.64881 -6.58855,6.5424 -13.74101,12.4824 -20.90485,18.390405 3.95235,-6.171205 6.83241,-12.142305 9.38331,-18.586605 4.48283,-12.14631 7.60407,-24.64281 3.1763,-36.92621 -2.08349,-5.3471 -5.16242,-10.375 -8.9894,-14.7451 -0.0995,0.02 -0.0995,0.02 -0.0995,0.02 -4.59253,2.6405 -5.99088,4.1254 -9.56744,7.2247 -0.52704,1.1636 -0.37228,7.6693 -0.7653,8.7673 4.86621,10.4982 4.22032,23.0396 -0.85562,33.43911 -7.6543,16.0685 -17.99416,30.687105 -26.02345,46.557405 -2.78572,-5.441 -6.24597,-10.5847 -9.88398,-15.2099 -6.02325,-7.3999 -12.683595,-14.234505 -19.334545,-21.077605 -6.17024,1.263 -11.63588,3.1233 -10.54427,10.644005 9.85866,7.6806 18.38001,17.2976 24.065655,28.4682 3.2981,6.5315 6.48709,15.8993 6.84099,24.0236 -0.78331,5.6879 -0.75438,11.4064 0.45181,16.9306 -4.80036,-5.4628 -8.92974,-11.5163 -12.327075,-17.9145 -6.26097,-10.8819 -12.54788,-18.293 -20.12189,-25.4195 -9.63663,-8.6628 -20.08865,-16.182 -33.14429,-16.6062 -6.46926,-0.019 -13.02913,1.2214 -20.35588,4.3493 -7.33543,3.1265 -13.59337,7.8637 -18.1881105,14.0158 -4.0068998,5.6543 -6.53210976,12.5951 -6.93333976,19.5638 -0.40835,6.9455 1.32304996,13.9207 5.83156976,19.6242 3.64449,4.979 8.3748905,8.8824 13.5581405,12.1508 6.86206,8.7625 12.26373,12.003 23.01652,15.3404 4.85723,2.1951 7.23415,0.02 8.02961,-1.7134 -0.38893,-2.1571 -0.13451,-3.8331 -3.73007,-7.9652 -0.89233,-1.3068 -2.86867,-4.1611 -3.57062,-4.309 -3.24979,0.5122 -3.75475,-0.6368 -3.51828,-1.4395 0.10221,-0.3015 -0.26967,-0.02 2.22352,-0.02 0.64888,-1.5322 -0.37924,-2.9573 -1.42854,-3.834 -4.64691,-2.3819 -13.86805,-4.5336 -16.12763,-7.0654 -6.58916,-7.3618 -15.0160005,-17.843 -11.80901,-27.183 2.78842,-8.1196 14.20353,-10.7925 22.60425,-12.3608 13.01231,-2.5005 26.43444,2.9486 35.22712,12.6077 12.86381,13.8881 23.09497,29.9703 35.908425,43.8967 11.21437,11.7751 26.3323,22.7496 43.23271,21.9455 l 0.0406,-0.018 c 0.38316,0.018 0.75762,0.018 1.13317,0.049 9.3234,1.4852 18.93806,1.3578 27.99687,-1.1011 14.76984,-3.8443 27.84023,-15.3554 31.18702,-30.5787 6.00505,-19.7346 -3.29142,-43.2617 -22.14458,-52.2629 -8.13329,-4.6263 -18.34468,-4.9041 -26.56085,-0.056 -9.62449,3.9169 -18.0616,12.1934 -18.92174,23.0052 -0.43179,10.0895 4.13251,-4.7601 7.96246,-5.7989 6.8284,-6.0534 16.16931,-6.3054 24.59733,-5.5044 6.71009,1.0801 12.71035,4.4124 16.31347,9.9716 10.36393,14.4588 5.67419,38.6988 -11.6628,45.4585 -8.96126,3.3643 -19.29336,3.8532 -28.51523,1.1488 l 0.0814,-0.283 c -0.41121,0.02 -0.8098,-0.017 -1.21565,-0.021 -6.77222,-2.2074 -12.87711,-6.2106 -17.29678,-12.1357 -1.44092,-2.0157 -2.53785,-4.1354 -3.33755,-6.333 l 0.0856,-0.02 c -0.37638,-0.9152 -0.70641,-1.8607 -1.00251,-2.8175 -2.63425,-10.7704 1.19015,-22.87 7.1776,-32.0751 7.39945,-11.297 17.8511,-20.4778 29.48551,-27.1972 10.66333,-6.6426 17.85846,-13.177305 24.71329,-21.002105 3.33226,-3.9707 6.47202,-8.0746 9.04211,-12.3991 2.28979,-2.767 4.64088,-5.4812 7.08551,-8.11611 8.79866,-9.6717 22.21526,-15.1186 35.22899,-12.6265 8.40147,1.5558 19.8202,4.2429 22.60591,12.3586 3.20148,9.35731 -5.22196,19.84351 -11.81296,27.19791 -2.25615,2.5122 -11.47512,4.675005 -16.12597,7.051005 -1.0504,0.8844 -2.08023,2.2975 -1.4292,3.8364 2.49504,-0.019 2.11012,-0.057 2.22343,0.019 0.26541,0.789 -0.27492,1.9467 -3.5185,1.432 -0.69585,0.022 -2.67686,3.0068 -3.56751,4.3163 -3.56117,4.1199 -3.34576,5.8142 -3.73355,7.9628 0.79615,1.7862 3.17538,3.9027 8.03057,1.7204 10.75505,-3.3484 16.159,-6.5847 23.01543,-15.3439 5.18594,-3.2796 9.9158,-7.1768 13.56013,-12.159105 4.50822,-5.7027 6.23244,-12.6759 5.83077,-19.6248 -0.40677,-6.95561 -2.92851,-13.90771 -6.93011,-19.56441 -8.85687,-11.8688 -23.93258,-18.4423 -38.54634,-18.3552 -10.05542,0.063 -18.56571,4.8649 -26.34627,10.8767 -2.23892,-11.9425 -8.82706,-23.2545 -18.86966,-30.20741 -5.97603,-3.92592 -13.26007,-6.23937 -20.43752,-6.26181 z m -39.45477,2.84191 c -3.95263,0.0195 -7.90673,0.61499 -11.631,1.85615 -6.60829,2.19716 -12.44762,6.36292 -16.084635,12.66632 -6.34141,10.0878 -7.48971,22.4289 -7.92727,34.0338 0.2764,1.3508 0.98419,2.9464 2.6429,3.1279 1.16086,-2.2158 0.76512,-1.9952 1.14829,-1.905 0.81917,0.037 1.58455,1.1807 -0.45844,3.7741 -0.24084,0.6831 1.31207,3.80851 2.00918,5.21751 1.87245,5.1322 3.44099,5.7702 5.126475,7.1441 1.93982,0.034 4.96472,-0.8537 5.4239,-6.1484 2.34709,-11.06071 2.16514,-17.35801 -2.17242,-27.68601 6.19592,-11.6294 10.60692,-20.0632 20.90065,-21.0221 4.01457,0.02 7.38215,1.7845 10.27963,4.251 0.0963,-0.02 0.0963,-0.041 0.12099,-0.056 0.67728,-1.0584 1.37808,-2.0778 2.10305,-3.0637 0.72497,-0.9861 1.477,-1.935 2.26346,-2.8776 0.78343,-0.9349 1.60026,-1.8649 2.45874,-2.7943 0.52445,-0.56268 1.09718,-1.14129 1.65118,-1.7272 -2.7884,-1.46824 -5.72694,-2.67739 -8.80119,-3.50155 -2.94406,-0.70653 -6.01361,-1.07117 -9.09315,-1.06985 z M 241.12563,183.75285 c -0.0803,0.016 -0.0856,0.018 -0.0856,0.018 -0.10014,0.151 0.15633,0.02 0.10984,-0.018 -0.0427,-0.021 -0.0427,-0.021 -0.0889,-0.021 z"
     id="selection_to_path"
     inkscape:connector-curvature="0"
     sodipodi:nodetypes="sccccccccccccccccccccccccccccccccscccccccccsscccccccccccccccccccccccccccccccccccccccsccccsssccccccccccccsssccscccc" />
  <path
     sodipodi:nodetypes="cscccasccccccccc"
     inkscape:connector-curvature="0"
     d="m 85.244725,247.45805 c 6.41469,-3.3906 10.8066,-9.0771 13.24894,-15.5976 2.441225,-6.5228 2.933165,-13.8988 1.548145,-20.6972 -3.306755,-14.4339 -9.603315,-19.4546 -23.015765,-25.2751 -5.39388,4.9145 -5.72203,9.7716 -3.03101,14.5935 7.05841,4.8268 16.42621,11.8764 15.69626,20.4371 -0.84524,9.8436 -12.77888,16.0299 -21.77663,20.1095 -3.09389,1.3837 -12.39189,-0.2317 -17.60524,-0.021 -1.32419,0.3127 -2.84093,1.2812 -2.85907,2.9357 2.31417,0.9455 2.05889,0.5704 2.00411,0.9647 -0.0875,0.8186 -1.04023,1.6759 -3.8041,-0.018 -0.69714,-0.02 -3.66074,1.6738 -4.99764,2.4939 -4.92855,2.3541 -5.41212,3.9925 -6.6331,5.7944 0.0923,1.9462 1.33014,4.8497 6.65164,4.8119 11.18868,1.2792 17.439,0.5157 27.2592,-4.755 6.0528,-0.8989 11.95699,-2.5494 17.31426,-5.6524 z"
     style="fill:#000000;stroke:none;stroke-width:0.17229468"
     id="path96" />
  <rect
     y="143.61157"
     x="172.81107"
     height="42.169724"
     width="744.44409"
     id="rect51"
     style="fill:#ff0000;stroke:#000000;stroke-width:0.21621387" />
  <text
     xml:space="preserve"
     style="font-style:normal;font-variant:normal;font-weight:normal;font-stretch:normal;font-size:124.07609558px;line-height:1.25;font-family:'Liberation Serif';-inkscape-font-specification:'Liberation Serif';letter-spacing:0px;word-spacing:0px;fill:#000000;fill-opacity:1;stroke:none;stroke-width:3.10190225"
     x="295.66501"
     y="133.21875"
     id="text55"><tspan
       sodipodi:role="line"
       id="tspan53"
       x="295.66501"
       y="133.21875"
       style="font-style:normal;font-variant:normal;font-weight:normal;font-stretch:normal;font-size:192px;font-family:'Liberation Serif';-inkscape-font-specification:'Liberation Serif';stroke-width:3.10190225">parglare</tspan></text>
</svg>
